<svg xmlns="http://www.w3.org/2000/svg" width="512" height="512" viewBox="0 0 512 512" role="img" aria-label="OpenClaw logo">
  <defs>
    <linearGradient id="g1" x1="0" x2="1" y1="0" y2="1">
      <stop offset="0%" stop-color="#ffb000"/>
      <stop offset="100%" stop-color="#ff5f1f"/>
    </linearGradient>
    <linearGradient id="g2" x1="0" x2="1" y1="0" y2="1">
      <stop offset="0%" stop-color="#0f172a"/>
      <stop offset="100%" stop-color="#1f2937"/>
    </linearGradient>
  </defs>
  <rect width="512" height="512" rx="112" fill="url(#g2)"/>
  <circle cx="256" cy="256" r="176" fill="none" stroke="url(#g1)" stroke-width="18" opacity="0.9"/>
  <path d="M170 312c20-62 54-118 86-118 22 0 38 11 53 34 13 20 30 34 56 38" fill="none" stroke="url(#g1)" stroke-width="22" stroke-linecap="round" stroke-linejoin="round"/>
  <path d="M195 204c8 18 13 34 13 50" fill="none" stroke="#ffd166" stroke-width="16" stroke-linecap="round"/>
  <path d="M240 182c10 24 14 49 13 74" fill="none" stroke="#ffd166" stroke-width="16" stroke-linecap="round"/>
  <path d="M286 194c12 28 18 53 18 86" fill="none" stroke="#ffd166" stroke-width="16" stroke-linecap="round"/>
  <path d="M332 224c16 18 28 35 38 58" fill="none" stroke="#ffd166" stroke-width="16" stroke-linecap="round"/>
  <circle cx="332" cy="162" r="18" fill="url(#g1)"/>
  <text x="256" y="390" text-anchor="middle" font-family="Verdana, Arial, sans-serif" font-size="44" font-weight="700" fill="#ffffff">OpenClaw</text>
</svg>
